<?xml version="1.0" encoding="UTF-8"?>
<svg width="52px" height="52px" viewBox="0 0 52 52" version="1.1" xmlns="http://www.w3.org/2000/svg" xmlns:xlink="http://www.w3.org/1999/xlink">
    <title>入会申请</title>
    <defs>
        <linearGradient x1="76.9855001%" y1="-3.05311332e-14%" x2="50%" y2="100%" id="linearGradient-1">
            <stop stop-color="#FFBA8B" offset="0%"></stop>
            <stop stop-color="#FF9364" offset="100%"></stop>
        </linearGradient>
        <path d="M31.8682828,25.1044922 C35.8077849,25.1044922 39,28.2158203 39,32.0522461 C39,35.8886719 35.8050773,39 31.8655752,39 C27.9260731,39 24.733858,35.8886719 24.733858,32.0522461 C24.733858,28.2158203 27.9287807,25.1044922 31.8682828,25.1044922 Z M26.0605632,25.7504883 C24.2871104,27.3008789 23.171595,29.55 23.171595,32.0522461 C23.171595,34.3224609 24.0894584,36.3817383 25.5813248,37.903125 C25.1264545,37.9347656 23.4315209,38.0455078 23.1878404,38.0455078 C21.1409238,38.0428711 18.0976246,38.0270508 16.9035899,37.8952148 C16.9035899,37.8952148 13.0019937,37.7449219 13.0019937,35.2664063 L13.0012654,35.2430932 C13.0010681,35.235401 13.0008557,35.2258449 13.0006623,35.2144841 L13.0003571,35.0651036 C13.0087941,34.26378 13.1835263,31.2345567 15.2546849,28.9725586 C15.2546849,28.9725586 17.8160382,25.7504883 22.1643821,25.7504883 Z M32.3312758,27.2455078 L31.4052898,27.2455078 C31.0668446,27.2455078 30.7879657,27.5170898 30.7879657,27.8466797 L30.7879657,30.4016602 C30.7879657,30.73125 30.5090869,31.002832 30.1706417,31.002832 L27.5497221,31.002832 C27.2112769,31.002832 26.932398,31.2744141 26.932398,31.6040039 L26.932398,32.5057617 C26.932398,32.8353516 27.2112769,33.1069336 27.5497221,33.1069336 L30.1706417,33.1069336 C30.5090869,33.1069336 30.7879657,33.3785156 30.7879657,33.7081055 L30.7879657,36.2578125 C30.7879657,36.5874023 31.0668446,36.8589844 31.4052898,36.8589844 L32.3312758,36.8589844 C32.669721,36.8589844 32.9485999,36.5874023 32.9485999,36.2578125 L32.9485999,33.7054688 C32.9485999,33.3758789 33.2274787,33.1042969 33.5659239,33.1042969 L36.1868435,33.1042969 C36.5252887,33.1042969 36.8041676,32.8327148 36.8041676,32.503125 L36.8041676,31.6013672 C36.8041676,31.2717773 36.5252887,31.0001953 36.1868435,31.0001953 L33.5659239,31.0001953 C33.2274787,31.0001953 32.9485999,30.7286133 32.9485999,30.3990234 L32.9485999,27.8466797 C32.9485999,27.5170898 32.669721,27.2455078 32.3312758,27.2455078 Z M24.863821,12 C28.4730006,12 31.3267705,14.7791016 31.3267705,18.2938477 C31.3267705,21.6583008 28.4730006,24.5876953 24.863821,24.5876953 C21.2546414,24.5876953 18.4008715,21.8085938 18.4008715,18.2938477 C18.4008715,14.7791016 21.2546414,12 24.863821,12 Z" id="path-2"></path>
        <filter x="-42.3%" y="-25.9%" width="184.6%" height="181.5%" filterUnits="objectBoundingBox" id="filter-3">
            <feOffset dx="0" dy="4" in="SourceAlpha" result="shadowOffsetOuter1"></feOffset>
            <feGaussianBlur stdDeviation="3" in="shadowOffsetOuter1" result="shadowBlurOuter1"></feGaussianBlur>
            <feColorMatrix values="0 0 0 0 1   0 0 0 0 0.592156863   0 0 0 0 0.407843137  0 0 0 0.404529065 0" type="matrix" in="shadowBlurOuter1"></feColorMatrix>
        </filter>
    </defs>
    <g id="小程序" stroke="none" stroke-width="1" fill="none" fill-rule="evenodd">
        <g id="1-01首页" transform="translate(-162, -294)">
            <g id="功能区" transform="translate(24, 294)">
                <g id="入会申请" transform="translate(138, 0)">
                    <rect id="矩形备份-8" fill="url(#linearGradient-1)" x="0" y="0" width="52" height="52" rx="20"></rect>
                    <g id="形状结合" fill-rule="nonzero">
                        <use fill="black" fill-opacity="1" filter="url(#filter-3)" xlink:href="#path-2"></use>
                        <use fill="#FFFFFF" xlink:href="#path-2"></use>
                    </g>
                </g>
            </g>
        </g>
    </g>
</svg>