<?xml version="1.0" encoding="UTF-8"?>
<svg width="58px" height="58px" viewBox="0 0 58 58" version="1.1" xmlns="http://www.w3.org/2000/svg" xmlns:xlink="http://www.w3.org/1999/xlink">
    <title>头像</title>
    <defs>
        <circle id="path-1" cx="29" cy="29" r="29"></circle>
    </defs>
    <g id="小程序" stroke="none" stroke-width="1" fill="none" fill-rule="evenodd">
        <g id="3-01我的" transform="translate(-20, -108)">
            <g id="头像" transform="translate(20, 108)">
                <mask id="mask-2" fill="white">
                    <use xlink:href="#path-1"></use>
                </mask>
                <use id="蒙版" fill="#D9ECFF" xlink:href="#path-1"></use>
                <g id="编组" mask="url(#mask-2)" fill-rule="nonzero">
                    <g transform="translate(8, 10)">
                        <path d="M26.0998518,23.7847564 C26.0998518,23.7847564 26.4145185,21.1188304 26.491,20.9265342 C26.3620741,21.018312 26.0037037,21.2106082 25.8791482,21.3089416 C25.0902963,21.9404601 23.0056296,22.1589786 20.8794444,22.1021638 C18.7532592,22.1502378 16.6685926,21.9360897 15.8797407,21.3089416 C15.7551851,21.2106082 15.3968148,21.018312 15.2678889,20.9265342 C15.3443703,21.1188304 15.6612222,23.7869416 15.659037,23.7847564 C15.7355185,28.6664601 14.8461482,29.3657194 14.4025556,30.9718305 C15.8163704,33.5110157 17.8682593,35.9780897 19.2820741,38.5172749 C19.588,39.0657564 20.2501111,39.1924971 20.6827778,39.5902008 L20.6827778,39.8087194 L20.8357407,39.8830156 L20.8816296,39.8109046 L20.9275185,39.8830156 L21.0804815,39.8087194 L21.0804815,39.5902008 C21.5175185,39.1924971 22.1730741,39.0657564 22.4811852,38.5172749 C23.895,35.9780897 25.9468889,33.5110157 27.3607037,30.9718305 C26.9127407,29.3700897 26.0233703,28.6664601 26.0998518,23.7847564 L26.0998518,23.7847564 Z" id="路径" stroke="#1677FF" stroke-width="0.85995" fill="#FFFFFF"></path>
                        <path d="M22.0616296,33.3077934 L21.417,33.5306823 L20.9537407,36.4457194 L24.1484815,35.9955712 L25.640963,33.7557564 L22.0616296,33.3077934 L22.0616296,33.3077934 Z M19.6972592,33.3077934 L20.3418889,33.5306823 L20.8051482,37.3197934 L16.52,35.7770527 L16.1179259,33.7557564 L19.6972592,33.3077934 L19.6972592,33.3077934 Z" id="形状" stroke="none" fill="#1D65C9"></path>
                        <path d="M30.6690741,14.2704601 C29.996037,14.6026083 29.5174815,15.2625342 29.2224815,15.9530527 C30.0681481,12.2163861 29.8649259,7.67775645 26.5631111,5.79412677 C23.0974073,3.82746012 17.3503703,3.8908305 14.3654074,6.53927493 C12.3987408,8.28742309 10.9084444,12.1442749 12.3484815,15.8962379 C12.0228889,15.2406823 11.7562963,14.233312 11.0198889,14.2792008 C8.69048146,14.423423 9.21492589,17.2576082 9.76777778,18.3217934 C10.3206297,19.3859786 11.3782592,20.2119786 12.567,20.2622379 C12.7109189,20.2503903 12.854858,20.2848437 12.9778148,20.3605712 C13.0530239,20.4348982 13.1059984,20.5287388 13.1307778,20.6315342 C13.7491852,22.5107934 14.3238889,24.0797564 15.93,25.3755712 C17.5361111,26.671386 19.6841482,27.5301638 21.8015926,27.178349 C24.3058148,26.7631638 26.8559259,25.1701638 27.7562222,22.6987194 C28.0337408,21.9339046 27.9463334,20.8129046 28.767963,20.3758675 C28.9180134,20.3097637 29.0785194,20.2705618 29.2421482,20.2600527 C30.4636667,20.0699416 31.4273334,19.1783861 31.9605185,18.0967194 C32.348648,17.3383344 32.5217079,16.4881494 32.4609259,15.638386 C32.3691481,14.6288304 31.3311851,13.9470527 30.6690741,14.2704601 L30.6690741,14.2704601 Z" id="路径" stroke="#1677FF" stroke-width="0.85995" fill="#FFFFFF"></path>
                        <path d="M38.030963,34.8330527 C34.6832592,31.5224971 29.146,29.8704971 29.0717037,30.0518675 C28.9974073,30.2332379 26.5106666,36.2315713 20.5953704,36.2315712 C14.2823704,36.2315712 12.7724074,30.2288675 12.6959259,30.0518675 C12.6194444,29.8748676 7.07999994,31.5224971 3.73666665,34.8330527 C0.557222216,37.9578675 0.194481458,45.8048675 0,48.5997194 L41.7588889,48.5997194 C41.5644074,45.8048675 41.2016666,37.9578675 38.030963,34.8330527 Z" id="路径" stroke="none" fill="#1677FF"></path>
                        <path d="M29.0673333,30.0474971 C28.9974073,30.211386 26.5062963,36.2272009 20.591,36.2272008 C14.278,36.2272008 12.768037,30.2244971 12.6915556,30.0474971 C12.6631482,29.9797564 13.3471111,30.3534231 12.1977037,30.7860897 C13.7273333,34.6232749 15.8229259,37.0684971 20.3877778,37.1515342 C25.2738518,37.2411268 27.8589259,34.0354601 29.3120741,30.0365712 C28.6477778,29.822423 29.0891852,29.999423 29.0673333,30.0474971 L29.0673333,30.0474971 Z" id="路径" stroke="none" fill="#4F98FF"></path>
                        <path d="M21.4934815,33.6814601 C22.0528889,34.0791639 23.447037,34.9510527 26.1173333,35.9474971 C26.1772085,35.9702705 26.2442804,35.9638057 26.2987037,35.9300156 C26.7357407,35.6546823 29.0454815,34.4659416 29.8649259,30.9609046 C30.0423412,30.2659761 29.6845914,29.5458304 29.0236296,29.267386 L26.8821482,28.382386 C26.7849267,28.3506608 26.6787055,28.3906072 26.6264815,28.4785342 C26.255,29.0882008 24.721,31.3760897 21.5131482,33.2684601 C21.4430929,33.3121007 21.3989337,33.3873598 21.3950079,33.4698026 C21.391082,33.5522455 21.4278901,33.6313601 21.4934815,33.6814601 L21.4934815,33.6814601 Z M20.2654074,33.6814601 C19.706,34.0791639 18.3118518,34.9510527 15.6415556,35.9474971 C15.5816804,35.9702705 15.5146085,35.9638057 15.4601852,35.9300156 C15.0231482,35.6546823 12.7134074,34.4659416 11.893963,30.9609046 C11.7165477,30.2659761 12.0742975,29.5458304 12.7352592,29.267386 L14.8767407,28.382386 C14.9739621,28.3506608 15.0801834,28.3906072 15.1324074,28.4785342 C15.5038889,29.0882008 17.0378889,31.3760897 20.2457407,33.2684601 C20.3157959,33.3121007 20.3599551,33.3873598 20.363881,33.4698026 C20.3678068,33.5522455 20.3309988,33.6313601 20.2654074,33.6814601 L20.2654074,33.6814601 Z" id="形状" stroke="none" fill="#A3C9FF"></path>
                        <path d="M12.272,15.8962379 C12.272,15.8962379 13.1788518,12.0372009 13.181037,12.0350156 C13.7295185,9.37783044 16.4172963,7.62312677 19.0111111,8.45349715 L19.1094444,8.48627493 C19.8823026,8.73867992 20.7188452,8.71473456 21.476,8.41853417 C23.9255926,7.44612677 26.6133704,8.78564531 27.5092963,11.2155712 L29.2574444,15.9530527 C29.2574444,15.9530527 29.7228889,14.9303861 30.350037,14.4911638 C30.350037,14.4911638 32.9023333,5.17353417 26.4167037,2.16016379 C19.9616666,-0.833539938 12.4205925,0.064571199 11.0898148,0.350830499 C11.0560585,0.363393489 11.0306626,0.39178604 11.0219269,0.426728877 C11.0131912,0.461671715 11.0222381,0.498675006 11.0461111,0.525645309 C11.4197777,0.93427493 12.3747037,3.36638607 11.3323704,4.41090455 C10.0627778,5.68049715 10.1327037,12.5572749 11.0592222,14.2704601 C11.0461111,14.2792009 12.1037408,14.9478675 12.272,15.8962379 L12.272,15.8962379 Z" id="路径" stroke="none" fill="#1677FF"></path>
                    </g>
                </g>
            </g>
        </g>
    </g>
</svg>