<?xml version="1.0" encoding="UTF-8"?>
<svg width="16px" height="16px" viewBox="0 0 16 16" version="1.1" xmlns="http://www.w3.org/2000/svg" xmlns:xlink="http://www.w3.org/1999/xlink">
    <title>更换</title>
    <g id="小程序" stroke="none" stroke-width="1" fill="none" fill-rule="evenodd">
        <g id="2-03企业详情" transform="translate(-299, -1327)" fill-rule="nonzero">
            <g id="企业成员" transform="translate(0, 1312)">
                <g id="编组-5" transform="translate(299, 13)">
                    <g id="更换" transform="translate(0, 2)">
                        <rect id="矩形" fill="#000000" opacity="0" x="0" y="0" width="16" height="16"></rect>
                        <path d="M15.4,5.09279687 C15.0686292,5.09279687 14.8,5.36144165 14.8,5.6928125 L14.8,6.1071875 C14.7920891,8.75487056 12.6476831,10.8992766 10,10.9071875 L5.70320313,10.9071875 L7.42,9.7071875 C7.69260429,9.51720154 7.75957969,9.14219805 7.56959374,8.86959376 C7.37960779,8.59698946 7.0046043,8.53001406 6.732,8.72 L3.47759375,11.0007969 C3.33555357,11.0900664 3.23812769,11.2354782 3.20959375,11.4007969 C3.20959375,11.4136094 3.20959375,11.4264062 3.204,11.4392031 C3.20439721,11.4429269 3.20439721,11.4466824 3.204,11.4504062 L3.204,11.5544062 C3.20442593,11.5578567 3.20442593,11.5613464 3.204,11.5647969 C3.204,11.5776094 3.208,11.5904062 3.20959375,11.604 C3.2243016,11.6902764 3.25790591,11.7722329 3.308,11.844 C3.35357221,11.9078688 3.41118232,11.96222 3.47759375,12.004 L6.732,14.2824062 C7.00342772,14.4717427 7.37686006,14.4059259 7.56720313,14.1352031 C7.75661947,13.8635243 7.69082159,13.4898431 7.42,13.2992031 L5.70320313,12.0992031 L10.012,12.0992031 C13.3171917,12.0833968 15.9908107,9.40441982 16,6.09920312 L16,5.69279687 C16,5.36142603 15.7313708,5.09279687 15.4,5.09279687 L15.4,5.09279687 Z M12.8,4.56 C12.7996028,4.55627619 12.7996028,4.55252069 12.8,4.54879687 L12.8,4.44159375 C12.7996039,4.4378751 12.7996039,4.4341249 12.8,4.43040625 C12.8,4.41759375 12.796,4.40479687 12.7944063,4.3911875 C12.7664541,4.22563662 12.6688824,4.08000726 12.5264063,3.9911875 L9.268,1.70801562 C8.99649595,1.51802967 8.62238439,1.58411314 8.43239844,1.85561719 C8.24241248,2.12712123 8.30849595,2.5012328 8.58,2.69121875 L10.2967969,3.89121875 L5.988,3.89121875 C2.68219461,3.9070303 0.00832391223,6.58696415 0,9.89279687 L0,10.3072031 C0,10.638574 0.26862915,10.9072031 0.6,10.9072031 C0.93137085,10.9072031 1.2,10.638574 1.2,10.3072031 L1.2,9.89279687 C1.20791951,7.24511992 3.35232302,5.10072339 6,5.0928125 L10.2967969,5.0928125 L8.58,6.2928125 C8.40365315,6.41571186 8.30626796,6.62335548 8.32452851,6.83752602 C8.34278905,7.05169656 8.47392111,7.23985641 8.66852851,7.33112758 C8.8631359,7.42239876 9.09165315,7.40291499 9.268,7.28001562 L12.5224062,5.0008125 C12.6644464,4.91154297 12.7618723,4.7661312 12.7904062,4.6008125 C12.7927969,4.58160937 12.7952031,4.5688125 12.8,4.56001562 L12.8,4.56 Z" id="形状" fill="#1677FF"></path>
                    </g>
                </g>
            </g>
        </g>
    </g>
</svg>