<?xml version="1.0" encoding="UTF-8"?>
<svg width="20px" height="20px" viewBox="0 0 20 20" version="1.1" xmlns="http://www.w3.org/2000/svg" xmlns:xlink="http://www.w3.org/1999/xlink">
    <title>选择</title>
    <g id="船期查询" stroke="none" stroke-width="1" fill="none" fill-rule="evenodd">
        <g id="04-详细船期" transform="translate(-46, -199)">
            <g id="编组-4" transform="translate(0, 88)">
                <g id="编组-6" transform="translate(12, 103)">
                    <g id="选择" transform="translate(34, 8)">
                        <path d="M20,0 L20,16 C20,18.209139 18.209139,20 16,20 L0,20 L0,20 L20,0 Z" id="矩形" fill="#1677FF"></path>
                        <path d="M17.9768066,12.1425268 L13.4552695,16.9096241 L13.4552695,16.9096241 C13.3409727,17.0301253 13.1556609,17.0301253 13.0413641,16.9096241 C13.0314937,16.8992178 13.0224756,16.8882532 13.01431,16.8768267 C13.003589,16.8683554 12.9932417,16.8588895 12.983419,16.8485335 L10.0231931,13.7275104 C9.99246694,13.6951152 9.99224121,13.642352 10.0226889,13.6096605 C10.0373974,13.5938681 10.0574274,13.5849839 10.0783236,13.5849839 L10.6834624,13.5849839 C10.7041111,13.5849839 10.7239244,13.5936593 10.7385918,13.6091228 L13.2481805,16.2549199 L13.2481805,16.2549199 L17.2614098,12.0241371 C17.2760771,12.0086747 17.2958896,12 17.3165374,12 L17.9216764,12 C17.9649333,12 18,12.0373096 18,12.0833333 C18,12.1055663 17.9916498,12.1268775 17.9768066,12.1425268 Z" id="路径" stroke="#FFFFFF" stroke-width="0.6006" fill="#FFFFFF" fill-rule="nonzero"></path>
                    </g>
                </g>
            </g>
        </g>
    </g>
</svg>