<?xml version="1.0" encoding="UTF-8"?>
<svg width="24px" height="24px" viewBox="0 0 24 24" version="1.1" xmlns="http://www.w3.org/2000/svg" xmlns:xlink="http://www.w3.org/1999/xlink">
    <title>close-circle-filled</title>
    <g id="小程序" stroke="none" stroke-width="1" fill="none" fill-rule="evenodd">
        <g id="4-10企业图鉴" transform="translate(-154, -194)" fill-rule="nonzero">
            <g id="编组-7" transform="translate(0, 88)">
                <g id="close-circle-filled" transform="translate(154, 106)">
                    <rect id="矩形" fill="#000000" opacity="0" x="0" y="0" width="24" height="24"></rect>
                    <path d="M12,1 C5.92544643,1 1,5.92544643 1,12 C1,18.0745536 5.92544643,23 12,23 C18.0745536,23 23,18.0745536 23,12 C23,5.92544643 18.0745536,1 12,1 Z M16.0611607,16.1790179 L14.440625,16.1716518 L12,13.2620536 L9.56183036,16.1691964 L7.93883929,16.1765625 C7.83080357,16.1765625 7.74241071,16.090625 7.74241071,15.9801339 C7.74241071,15.9334821 7.75959821,15.8892857 7.7890625,15.8524554 L10.9834821,12.0466518 L7.7890625,8.24330357 C7.75959821,8.20647321 7.74241071,8.16227679 7.74241071,8.115625 C7.74241071,8.00758929 7.83080357,7.91919643 7.93883929,7.91919643 L9.56183036,7.9265625 L12,10.8361607 L14.4381696,7.92901786 L16.0587054,7.92165179 C16.1667411,7.92165179 16.2551339,8.00758929 16.2551339,8.11808036 C16.2551339,8.16473214 16.2379464,8.20892857 16.2084821,8.24575893 L13.0189732,12.0491071 L16.2109375,15.8549107 C16.2404018,15.8917411 16.2575893,15.9359375 16.2575893,15.9825893 C16.2575893,16.090625 16.1691964,16.1790179 16.0611607,16.1790179 Z" id="形状" fill="#FFFFFF"></path>
                </g>
            </g>
        </g>
    </g>
</svg>