<?xml version="1.0" encoding="UTF-8"?>
<svg width="10px" height="10px" viewBox="0 0 10 10" version="1.1" xmlns="http://www.w3.org/2000/svg" xmlns:xlink="http://www.w3.org/1999/xlink">
    <title>icon/取消标签</title>
    <g id="小程序" stroke="none" stroke-width="1" fill="none" fill-rule="evenodd">
        <g id="4-05业务优势" transform="translate(-74, -707)" fill="#FA5151">
            <g id="3信息输入/按钮Button/主要按钮(吸底)/默认" transform="translate(0, 660)">
                <g id="取消标签" transform="translate(12, 38)">
                    <g id="icon/取消标签" transform="translate(62, 9)">
                        <path d="M5.82436322,5 L9.96986792,0.200920245 C10.0393545,0.121165644 9.9809226,0 9.87353429,0 L8.61330086,0 C8.53907659,0 8.46801079,0.032208589 8.41905435,0.0874233129 L5,4.04601227 L1.58094565,0.0874233129 C1.53356845,0.032208589 1.46250265,0 1.38669914,0 L0.12646571,0 C0.0190773973,0 -0.0393544786,0.121165644 0.0301320765,0.200920245 L4.17563678,5 L0.0301320765,9.79907975 C-0.0393544786,9.87883436 0.0190773973,10 0.12646571,10 L1.38669914,10 C1.46092341,10 1.53198921,9.96779141 1.58094565,9.91257669 L5,5.95398773 L8.41905435,9.91257669 C8.46643155,9.96779141 8.53749735,10 8.61330086,10 L9.87353429,10 C9.9809226,10 10.0393545,9.87883436 9.96986792,9.79907975 L5.82436322,5 Z" id="路径"></path>
                    </g>
                </g>
            </g>
        </g>
    </g>
</svg>