<?xml version="1.0" encoding="UTF-8"?>
<svg width="22px" height="22px" viewBox="0 0 22 22" version="1.1" xmlns="http://www.w3.org/2000/svg" xmlns:xlink="http://www.w3.org/1999/xlink">
    <title>icon/个人中心/企业管理</title>
    <g id="小程序" stroke="none" stroke-width="1" fill="none" fill-rule="evenodd">
        <g id="3-01我的" transform="translate(-24, -369)" fill="#1677FF" fill-rule="nonzero">
            <g id="编组备份" transform="translate(12, 301)">
                <g id="icon/个人中心/企业管理" transform="translate(13, 70)">
                    <path d="M16.9230769,0 L3.07692309,0 C1.38,0 0,1.404 0,3.13043479 L0,10.9565217 C0,12.6829565 1.38,14.0869565 3.07692309,14.0869565 L4.86384617,14.0869565 L6.20923078,17.5077392 C6.32615385,17.8051304 6.60846154,18 6.92307691,18 C7.23769229,18 7.52,17.8051304 7.6376923,17.5077391 L8.9823077,14.0869565 L16.9230769,14.0869565 C18.62,14.0869565 20,12.6829565 20,10.9565217 L20,3.13043477 C20,1.404 18.62,0 16.9230769,0 Z M18.4615385,10.9565217 C18.4615385,11.8197391 17.7715385,12.5217391 16.9230769,12.5217391 L8.46153846,12.5217391 C8.14692307,12.5217391 7.86461537,12.7166087 7.74692307,13.014 L6.92307691,15.1106087 L6.09923076,13.014 C5.98153846,12.7166087 5.69923076,12.5217391 5.38461539,12.5217391 L3.07692309,12.5217391 C2.22846154,12.5217391 1.53846154,11.8197391 1.53846154,10.9565217 L1.53846154,3.13043477 C1.53846154,2.26721738 2.22846154,1.56521738 3.07692309,1.56521738 L16.9230769,1.56521738 C17.7715385,1.56521738 18.4615385,2.26721738 18.4615385,3.13043477 L18.4615385,10.9565217 Z M15.3846154,5.47826087 C15.3846154,5.91026088 15.0407692,6.26086956 14.6153846,6.26086956 L5.38461539,6.26086956 C4.96,6.26086956 4.61538463,5.91026086 4.61538463,5.47826087 C4.61538463,5.04626089 4.96000002,4.69565219 5.38461539,4.69565219 L14.6153846,4.69565219 C15.0407692,4.69565219 15.3846154,5.04626087 15.3846154,5.47826087 Z M13.8461538,8.60869565 C13.8461538,9.04069565 13.5023077,9.39130435 13.0769231,9.39130435 L5.38461539,9.39130435 C4.96,9.39130435 4.61538463,9.04069565 4.61538463,8.60869567 C4.61538463,8.17669568 4.96000002,7.82608698 5.38461539,7.82608698 L13.0769231,7.82608698 C13.5023077,7.82608698 13.8461538,8.17669566 13.8461538,8.60869565 Z" id="形状"></path>
                </g>
            </g>
        </g>
    </g>
</svg>