<?xml version="1.0" encoding="UTF-8"?>
<svg width="22px" height="22px" viewBox="0 0 22 22" version="1.1" xmlns="http://www.w3.org/2000/svg" xmlns:xlink="http://www.w3.org/1999/xlink">
    <title>icon/个人中心/企业管理</title>
    <g id="优化1" stroke="none" stroke-width="1" fill="none" fill-rule="evenodd">
        <g id="1-02我的备份" transform="translate(-24, -485)" fill="#FA8C16" fill-rule="nonzero">
            <g id="编组备份-2" transform="translate(12, 470)">
                <g id="icon/个人中心/企业管理" transform="translate(12, 16.8157)">
                    <path d="M11.0143016,3.55271368e-15 C15.224635,3.55271368e-15 18.757044,2.90270996 19.7194851,6.81691734 C19.7194851,6.81691734 22.0592811,7.23069802 21.9847648,9.56472713 C21.9099463,11.8997888 19.3776772,12.1960911 19.3776772,12.1960911 C18.4244027,14.6602656 16.4132691,16.5985702 13.9005671,17.452775 C13.7266286,17.5113505 13.6460433,17.7857941 13.5718795,17.9340963 C13.2981663,18.4788534 12.5741068,18.3881696 12.0647318,18.3082894 C11.6689821,18.2479259 11.5253891,17.9759 11.5000802,17.5976524 C11.4795309,17.2797935 11.6258437,16.9167313 11.9656118,16.8196763 C12.6566565,16.6241561 13.2074826,16.7273053 13.2074826,16.7273053 C13.2074826,16.7273053 13.4279088,16.8223457 13.6375818,16.7509269 C16.8892012,15.6570058 19.2303319,12.584437 19.2303319,8.96350996 C19.2303319,4.4255215 15.5526174,0.746648585 11.0143016,0.746648585 C6.47633832,0.746648585 2.79728913,4.42552153 2.79728913,8.96350996 C2.79728913,10.0703247 3.01776565,11.1254642 3.41452264,12.08856 C3.22237693,12.1212222 2.68708864,12.2749388 2.65674321,12.1971236 C2.65674321,12.1971236 0.110296108,12.0487709 0.00344495832,9.62103614 C-0.103406192,7.19279768 2.31085574,6.81084825 2.31085574,6.81084825 C3.27563882,2.89968801 6.80600802,3.55271368e-15 11.0143016,3.55271368e-15 Z M10.9988141,1.72591185 C14.9006819,1.72591185 18.0751408,4.90034559 18.0751408,8.80218813 C18.0751408,12.7040558 14.9006819,15.87854 10.9988141,15.87854 C7.09694637,15.87854 3.92248746,12.7040559 3.92248746,8.80218813 C3.92248746,4.90034559 7.09694637,1.72591185 10.9988141,1.72591185 Z M10.9988141,3.10666648 C7.85842769,3.10666648 5.30324212,5.66167578 5.30324212,8.80218813 C5.30324212,11.9425745 7.85842769,14.4977601 10.9988141,14.4977601 C14.1392005,14.4977601 16.6943609,11.9425745 16.6943609,8.80218813 C16.6943609,5.66167578 14.1392005,3.10666648 10.9988141,3.10666648 Z M14.5905541,11.0765841 C14.7533617,11.1753515 14.8059688,11.3877191 14.7068488,11.5508793 C14.3360554,12.163051 13.8122254,12.6761028 13.1916173,13.0334233 C12.5514674,13.4018999 11.8210115,13.5967402 11.0790469,13.5967402 C10.3367802,13.5967402 9.60629903,13.4019251 8.96614904,13.0334233 C8.34591876,12.6761028 7.82203835,12.163731 7.450565,11.5508793 C7.35215012,11.3877191 7.40405213,11.1753515 7.56718713,11.0765841 C7.72999476,10.9774641 7.94238755,11.0300964 8.04115498,11.192904 C8.35229003,11.7066357 8.79150543,12.1360801 9.31062627,12.4347244 C10.3819331,13.0516054 11.7761606,13.0516054 12.8471401,12.4347244 C13.3665883,12.1354254 13.8054763,11.7062831 14.1162588,11.192904 C14.2153788,11.0300964 14.4270665,10.9774641 14.5905541,11.0765841 Z M15.0978642,9.01291885 C15.28865,9.01291885 15.4430717,9.16746646 15.4430717,9.35810121 C15.4430717,9.72856722 15.2981188,10.1597241 15.1053183,10.3609357 C15.0375511,10.4320523 14.9468673,10.467812 14.8558562,10.467812 C14.7702343,10.467812 14.6839324,10.4361319 14.6171977,10.3720917 C14.4796233,10.2402843 14.4746119,10.0218476 14.606369,9.88432362 C14.6562816,9.82849307 14.752707,9.58006352 14.752707,9.35810121 C14.752707,9.16746646 14.9070783,9.01291885 15.0978642,9.01291885 Z" id="形状结合"></path>
                </g>
            </g>
        </g>
    </g>
</svg>