<?xml version="1.0" encoding="UTF-8"?>
<svg width="56px" height="56px" viewBox="0 0 56 56" version="1.1" xmlns="http://www.w3.org/2000/svg" xmlns:xlink="http://www.w3.org/1999/xlink">
    <title>默认logo备份</title>
    <g id="小程序" stroke="none" stroke-width="1" fill="none" fill-rule="evenodd">
        <g id="1-01首页" transform="translate(-12, -895)">
            <g id="编组-5" transform="translate(0, 400)">
                <g id="默认logo备份" transform="translate(12, 495)">
                    <rect id="矩形" fill="#F5F7FA" x="0" y="0" width="56" height="56"></rect>
                    <path d="M32.5434783,25.0024961 L40.6553696,29.9533813 C41.0582461,30.199333 41.3043478,30.6392336 41.3043478,31.113586 L41.304,41.286 L42.6521739,41.2860709 C43.4978687,41.2860709 43.9455895,41.6867432 43.9953362,42.4880879 L44,42.6430354 C44,43.5476785 43.5507246,44 42.6521739,44 L14.3478261,44 C13.5021313,44 13.0544105,43.5993276 13.0046638,42.7979829 L13,42.6430354 C13,41.7383924 13.4492754,41.2860709 14.3478261,41.2860709 L15.695,41.286 L15.6956522,18.9748595 C15.6956522,18.0571707 16.3056632,17.2529898 17.185,17.0113318 L31.6923261,13.0238914 C31.8949813,12.9682738 32.1118062,13.0109703 32.2787134,13.139361 C32.4456206,13.2677517 32.5434783,13.4671529 32.5434783,13.6786268 L32.5434783,25.0024961 Z M27.1521739,33.8227658 L21.0869565,33.8227658 C20.1884058,33.8227658 19.7391304,34.2750873 19.7391304,35.1797303 L19.7437942,35.3346778 C19.7935409,36.1360225 20.2412617,36.5366949 21.0869565,36.5366949 L27.1521739,36.5366949 C28.0507246,36.5366949 28.5,36.0843734 28.5,35.1797303 L28.4953362,35.0247828 C28.4455895,34.2234381 27.9978687,33.8227658 27.1521739,33.8227658 Z M37.5978261,33.8227658 L36.25,33.8227658 C35.3514493,33.8227658 34.9021739,34.2750873 34.9021739,35.1797303 L34.9068377,35.3346778 C34.9565844,36.1360225 35.4043052,36.5366949 36.25,36.5366949 L37.5978261,36.5366949 C38.4963768,36.5366949 38.9456522,36.0843734 38.9456522,35.1797303 L38.9409884,35.0247828 C38.8912417,34.2234381 38.4435209,33.8227658 37.5978261,33.8227658 Z M27.1521739,28.3949075 L21.0869565,28.3949075 C20.1884058,28.3949075 19.7391304,28.847229 19.7391304,29.7518721 L19.7437942,29.9068196 C19.7935409,30.7081643 20.2412617,31.1088366 21.0869565,31.1088366 L27.1521739,31.1088366 C28.0507246,31.1088366 28.5,30.6565151 28.5,29.7518721 L28.4953362,29.5969246 C28.4455895,28.7955799 27.9978687,28.3949075 27.1521739,28.3949075 Z M27.1521739,22.9670493 L21.0869565,22.9670493 C20.1884058,22.9670493 19.7391304,23.4193708 19.7391304,24.3240138 L19.7437942,24.4789613 C19.7935409,25.280306 20.2412617,25.6809784 21.0869565,25.6809784 L27.1521739,25.6809784 C28.0507246,25.6809784 28.5,25.2286569 28.5,24.3240138 L28.4953362,24.1690663 C28.4455895,23.3677216 27.9978687,22.9670493 27.1521739,22.9670493 Z" id="形状结合" fill-opacity="0.755354021" fill="#BFC2CC" fill-rule="nonzero"></path>
                </g>
            </g>
        </g>
    </g>
</svg>