<?xml version="1.0" encoding="UTF-8"?>
<svg width="95px" height="100px" viewBox="0 0 95 100" version="1.1" xmlns="http://www.w3.org/2000/svg" xmlns:xlink="http://www.w3.org/1999/xlink">
    <title>kongbaiye</title>
    <g id="小程序" stroke="none" stroke-width="1" fill="none" fill-rule="evenodd">
        <g id="空白页" transform="translate(-140, -228)" fill-rule="nonzero">
            <g id="kongbaiye" transform="translate(140, 228)">
                <path d="M6.68131871,88.4254432 C6.68131871,92.5964547 14.1978022,96.350365 26.5164835,98.4358707 C38.8351647,100.521376 53.8681318,100.521376 66.1868132,98.4358707 C78.5054945,96.350365 86.021978,92.5964547 86.021978,88.4254432 C86.021978,81.9603754 68.2747253,76.7466111 46.3516483,76.7466111 C24.4285714,76.7466111 6.68131871,82.1689261 6.68131871,88.4254432 Z M0,83.6287801 C0,84.0458812 0.626373626,84.4629823 1.6703297,84.6715329 C2.71428578,84.8800834 3.96703303,84.8800834 5.01098901,84.6715329 C6.05494499,84.4629823 6.68131871,84.0458811 6.68131871,83.6287801 C6.68131871,83.0031283 5.21978028,82.3774766 3.34065931,82.3774766 C1.46153833,82.3774766 0,83.0031283 0,83.6287801 Z M86.6483516,91.1366007 C86.6483516,91.7622524 87.4835164,92.1793536 88.7362637,92.5964547 C89.989011,92.8050052 91.6593407,92.8050052 92.9120878,92.5964547 C94.1648351,92.3879042 95,91.7622524 95,91.1366007 C95,90.510949 94.1648352,90.0938478 92.9120878,89.6767466 C91.6593406,89.4681961 89.9890109,89.4681961 88.7362637,89.6767466 C87.4835165,89.8852972 86.6483516,90.5109489 86.6483516,91.1366007 Z" id="形状" fill="#ECECEC"></path>
                <path d="M41.5494505,22.3149114 C28.6043955,21.6892597 18.5824176,16.8925965 18.5824176,11.261731 C18.5824176,5.00521377 30.2747253,0 44.8901099,0 C59.5054945,0 71.1978022,5.00521377 71.1978022,11.261731 C71.1978022,16.8925965 61.1758242,21.6892597 48.021978,22.3149114 L46.3516483,25.6517206 C46.1428572,26.2773723 45.5164835,26.4859228 44.8901099,26.4859228 C44.2637363,26.4859228 43.6373627,26.0688216 43.4285714,25.6517206 L41.5494505,22.3149114 L41.5494505,22.3149114 Z M42.8021978,32.1167883 C42.8021978,33.1595412 43.6373626,34.2022941 44.8901099,34.2022941 C45.934066,34.2022941 46.978022,33.3680918 46.978022,32.1167883 C46.978022,31.0740354 46.1428572,30.0312826 44.8901099,30.0312826 C43.6373627,30.2398331 42.8021978,31.0740355 42.8021978,32.1167883 Z" id="形状" fill="#EDEDED"></path>
                <path d="M43.2197802,38.3733055 C43.2197802,39.2075078 44.054945,40.0417101 44.8901099,40.0417101 C45.0989011,40.0417101 45.5164835,40.0417101 45.7252747,39.8331596 C46.5604396,39.4160584 46.7692308,38.3733056 46.3516483,37.5391033 L45.7252747,36.9134515 C44.8901099,36.4963504 43.8461538,36.704901 43.4285714,37.5391033 C43.2197802,37.9562044 43.2197802,38.164755 43.2197802,38.3733055 L43.2197802,38.3733055 Z" id="路径" fill="#DBDBDB"></path>
                <path d="M43.6373627,44.004171 C43.6373627,44.6298227 44.2637363,45.2554744 44.8901099,45.2554744 C45.5164835,45.2554744 46.1428572,44.6298227 46.1428572,44.004171 C46.1428572,43.3785193 45.5164835,42.7528676 44.8901099,42.7528676 C44.0549451,42.7528676 43.6373627,43.1699687 43.6373627,44.004171 Z" id="路径" fill="#BDBDBD"></path>
                <path d="M14.4065934,51.9290928 L14.4065934,88.0083421 C14.4065934,89.2596455 15.2417582,90.0938478 16.2857143,90.510949 L46.3516483,97.3931179 L46.3516483,56.7257561 C29.021978,54.4316997 15.032967,51.9290928 14.4065934,51.9290928 L14.4065934,51.9290928 Z" id="路径" fill="#BABABA"></path>
                <path d="M78.0879121,52.7632951 L78.0879121,88.0083421 C78.0879121,89.2596455 77.2527473,90.0938478 76.2087912,90.510949 L46.3516483,97.3931179 L45.9340659,56.9343066 C67.4395604,53.5974975 78.0879121,52.346194 78.0879121,52.7632951 L78.0879121,52.7632951 Z" id="路径" fill="#BABABA"></path>
                <polygon id="路径" fill="#DEDEDE" points="6.05494509 65.9019812 14.6153846 51.9290928 46.3516483 56.9343066 38.8351648 72.9927008 6.05494509 65.9019812"></polygon>
                <polygon id="路径" fill="#DEDEDE" points="46.1428572 56.7257561 53.8681318 72.7841502 86.2307692 65.067779 78.2967033 51.7205423 46.1428572 56.7257561"></polygon>
                <polygon id="路径" fill="#BDBDBD" points="42.1758241 56.3086549 42.1758241 48.5922837 14.4065934 51.9290928"></polygon>
                <polygon id="路径" fill="#B7B7B7" points="46.1428572 56.7257561 78.5054944 51.7205423 42.1758241 48.3837331 42.1758241 56.3086549"></polygon>
                <path d="M35.9120879,13.3472367 C35.2857142,13.3472367 34.6593406,12.9301355 34.4505494,12.3044839 C34.2417583,11.6788322 34.2417583,11.0531804 34.8681319,10.4275287 C35.2857143,10.0104275 36.1208791,9.80187699 36.7472528,10.0104275 C37.3736264,10.2189781 37.7912087,10.8446298 37.7912087,11.4702815 C37.5824176,12.5130344 36.9560439,13.3472367 35.9120879,13.3472367 Z M45.3076923,13.3472367 C44.6813186,13.3472367 44.054945,12.9301355 43.8461538,12.3044839 C43.4285714,11.6788322 43.6373627,10.8446299 44.054945,10.4275287 C44.4725275,10.0104275 45.3076923,9.80187699 45.9340659,10.0104275 C46.5604395,10.2189781 46.978022,10.8446298 46.978022,11.4702815 C46.978022,12.5130344 46.1428572,13.3472367 45.3076923,13.3472367 Z M54.4945055,13.3472367 C53.8681318,13.3472367 53.2417582,12.9301355 53.032967,12.3044839 C52.8241759,11.6788322 52.8241759,11.0531804 53.4505494,10.4275287 C53.8681318,10.0104275 54.7032967,9.80187699 55.3296703,10.0104275 C55.9560439,10.2189781 56.3736264,10.8446298 56.3736264,11.4702815 C56.1648352,12.5130344 55.3296703,13.3472367 54.4945055,13.3472367 Z" id="形状" fill="#BEBEBE"></path>
            </g>
        </g>
    </g>
</svg>