<?xml version="1.0" encoding="UTF-8"?>
<svg width="16px" height="16px" viewBox="0 0 16 16" version="1.1" xmlns="http://www.w3.org/2000/svg" xmlns:xlink="http://www.w3.org/1999/xlink">
    <title>收藏</title>
    <g id="小程序" stroke="none" stroke-width="1" fill="none" fill-rule="evenodd">
        <g id="2-04已收藏" transform="translate(-141, -164)" fill-rule="nonzero">
            <g id="收藏" transform="translate(112, 156)">
                <g transform="translate(29, 8)">
                    <rect id="矩形" fill="#000000" opacity="0" x="0" y="0" width="16" height="16"></rect>
                    <path d="M7.824,15.0320003 C7.7338444,15.0320003 7.64740317,14.9960943 7.584,14.932 L1.969,9.232 C0.699,7.963 0,6.452 0,4.978 C0,2.598 1.58,1 3.933,1 C5.956,1 6.757,1.899 7.824,3.153 C8.891,1.899 9.693,1 11.715,1 C14.068,1 15.649,2.599 15.649,4.978 C15.649,6.452 14.949,7.963 13.679,9.234 L8.065,14.93 C8.00169865,14.9943672 7.91527803,15.0307358 7.825,15.031" id="路径" fill="#FFFFFF"></path>
                </g>
            </g>
        </g>
    </g>
</svg>