<?xml version="1.0" encoding="UTF-8"?>
<svg width="52px" height="52px" viewBox="0 0 52 52" version="1.1" xmlns="http://www.w3.org/2000/svg" xmlns:xlink="http://www.w3.org/1999/xlink">
    <title>箱货跟踪</title>
    <defs>
        <linearGradient x1="76.9855001%" y1="-3.05311332e-14%" x2="50%" y2="100%" id="linearGradient-1">
            <stop stop-color="#FFBA8B" offset="0%"></stop>
            <stop stop-color="#FF9364" offset="100%"></stop>
        </linearGradient>
        <path d="M41.4376333,26.1866302 C42.4375415,27.2280123 43,28.6457674 43,30.1247936 C43,31.6038199 42.4375415,33.0215749 41.4376333,34.062957 L37.6669333,38 L33.8957001,34.0618366 C32.8957918,33.0210147 32.3333333,31.6032597 32.3333333,30.1242334 C32.3333333,28.6452072 32.8957918,27.2274522 33.8957001,26.1860701 C35.9783851,24.0119574 39.3554816,24.0119574 41.4376333,26.1866302 Z M36.4592593,16 C37.4533718,16 38.2592593,16.8058875 38.2592593,17.8 L38.2596463,22.1037109 C36.6784222,21.9781858 35.0668238,22.3562252 33.6662615,23.237972 L33.6666667,19.6666667 C33.6666667,19.1604056 33.2686976,18.75 32.7777778,18.75 C32.286858,18.75 31.8888889,19.1604056 31.8888889,19.6666667 L31.8874199,24.7784879 C30.6320953,26.2443271 29.9333333,28.1474487 29.9333333,30.1242334 C29.9333333,31.6220412 30.334498,33.0775585 31.0756523,34.3333213 L12.8,34.3333333 C11.8058875,34.3333333 11,33.5274459 11,32.5333333 L11,17.8 C11,16.8058875 11.8058875,16 12.8,16 L36.4592593,16 Z M37.6669333,27.9165091 C36.9047211,27.9164478 36.200383,28.3435239 35.8192601,29.0368475 C35.4381371,29.7301711 35.4381371,30.5843987 35.8192601,31.2777223 C36.200383,31.9710459 36.9047211,32.3981219 37.6669333,32.3980606 C38.8450874,32.3979659 39.8001222,31.3947642 39.8001222,30.1572849 C39.8001222,28.9198056 38.8450874,27.9166038 37.6669333,27.9165091 Z M16.7777778,18.75 C16.286858,18.75 15.8888889,19.1604056 15.8888889,19.6666667 L15.8888889,30.6666667 C15.8888889,31.1729277 16.286858,31.5833333 16.7777778,31.5833333 C17.2686976,31.5833333 17.6666667,31.1729277 17.6666667,30.6666667 L17.6666667,19.6666667 C17.6666667,19.1604056 17.2686976,18.75 16.7777778,18.75 Z M22.1111111,18.75 C21.6201913,18.75 21.2222222,19.1604056 21.2222222,19.6666667 L21.2222222,30.6666667 C21.2222222,31.1729277 21.6201913,31.5833333 22.1111111,31.5833333 C22.6020309,31.5833333 23,31.1729277 23,30.6666667 L23,19.6666667 C23,19.1604056 22.6020309,18.75 22.1111111,18.75 Z M27.4444444,18.75 C26.9535247,18.75 26.5555556,19.1604056 26.5555556,19.6666667 L26.5555556,30.6666667 C26.5555556,31.1729277 26.9535247,31.5833333 27.4444444,31.5833333 C27.9353642,31.5833333 28.3333333,31.1729277 28.3333333,30.6666667 L28.3333333,19.6666667 C28.3333333,19.1604056 27.9353642,18.75 27.4444444,18.75 Z" id="path-2"></path>
        <filter x="-29.7%" y="-25.0%" width="159.4%" height="186.4%" filterUnits="objectBoundingBox" id="filter-3">
            <feOffset dx="0" dy="4" in="SourceAlpha" result="shadowOffsetOuter1"></feOffset>
            <feGaussianBlur stdDeviation="2.5" in="shadowOffsetOuter1" result="shadowBlurOuter1"></feGaussianBlur>
            <feColorMatrix values="0 0 0 0 1   0 0 0 0 0.592156863   0 0 0 0 0.407843137  0 0 0 0.404529065 0" type="matrix" in="shadowBlurOuter1"></feColorMatrix>
        </filter>
    </defs>
    <g id="箱货跟踪" stroke="none" stroke-width="1" fill="none" fill-rule="evenodd">
        <g id="0-首页" transform="translate(-162, -294)">
            <g id="功能区" transform="translate(24, 294)">
                <g id="箱货跟踪" transform="translate(138, 0)">
                    <rect id="矩形备份-8" fill="url(#linearGradient-1)" x="0" y="0" width="52" height="52" rx="20"></rect>
                    <g id="形状结合" fill-rule="nonzero">
                        <use fill="black" fill-opacity="1" filter="url(#filter-3)" xlink:href="#path-2"></use>
                        <use fill="#FFFFFF" xlink:href="#path-2"></use>
                    </g>
                </g>
            </g>
        </g>
    </g>
</svg>