<?xml version="1.0" encoding="UTF-8"?>
<svg width="16px" height="16px" viewBox="0 0 16 16" version="1.1" xmlns="http://www.w3.org/2000/svg" xmlns:xlink="http://www.w3.org/1999/xlink">
    <title>回复</title>
    <g id="小程序" stroke="none" stroke-width="1" fill="none" fill-rule="evenodd">
        <g id="5-02我的留言" transform="translate(-295, -282)" fill-rule="nonzero">
            <g id="编组" transform="translate(0, 98)">
                <g id="编组-4" transform="translate(277, 174)">
                    <g id="回复" transform="translate(18, 10)">
                        <rect id="矩形" fill="#000000" opacity="0" x="0" y="0" width="16" height="16"></rect>
                        <path d="M3.6609375,7.4234375 C3.6609375,7.903125 4.05,8.2921875 4.5296875,8.2921875 C5.009375,8.2921875 5.3984375,7.903125 5.3984375,7.4234375 C5.3984375,6.94375 5.009375,6.5546875 4.5296875,6.5546875 C4.05,6.5546875 3.6609375,6.94375 3.6609375,7.4234375 C3.6609375,7.9046875 3.6609375,7.4234375 3.6609375,7.4234375 L3.6609375,7.4234375 Z M7.096875,7.4234375 C7.096875,7.903125 7.4859375,8.2921875 7.965625,8.2921875 C8.4453125,8.2921875 8.834375,7.903125 8.834375,7.4234375 C8.834375,6.94375 8.4453125,6.5546875 7.965625,6.5546875 C7.4859375,6.5546875 7.096875,6.94375 7.096875,7.4234375 C7.096875,7.9046875 7.096875,7.4234375 7.096875,7.4234375 Z M10.5328125,7.4234375 C10.5328125,7.903125 10.921875,8.2921875 11.4015625,8.2921875 C11.88125,8.2921875 12.2703125,7.903125 12.2703125,7.4234375 C12.2703125,6.94375 11.88125,6.5546875 11.4015625,6.5546875 C10.921875,6.5546875 10.5328125,6.94375 10.5328125,7.4234375 Z M14.440625,4.9875 C14.0828125,4.2484375 13.575,3.5828125 12.9265625,3.015625 C11.6078125,1.85625 9.8578125,1.2203125 8.0015625,1.2203125 C6.14375,1.2203125 4.39375,1.8578125 3.0765625,3.0140625 C2.428125,3.58125 1.9203125,4.2453125 1.5625,4.9859375 C1.190625,5.7578125 1.003125,6.578125 1.003125,7.4234375 C1.003125,8.4140625 1.2734375,9.4 1.784375,10.275 C2.2296875,11.0390625 2.8625,11.721875 3.6203125,12.2640625 L3.6203125,14.31875 C3.6203125,14.496875 3.715625,14.659375 3.86875,14.7484375 C3.9453125,14.7921875 4.03125,14.8140625 4.1171875,14.8140625 C4.2015625,14.8140625 4.2890625,14.790625 4.365625,14.7484375 L6.540625,13.4921875 C7.0203125,13.5828125 7.5140625,13.628125 8.0046875,13.628125 C9.8625,13.628125 11.6125,12.990625 12.9296875,11.834375 C13.578125,11.2671875 14.0859375,10.603125 14.44375,9.8625 C14.815625,9.090625 15.003125,8.2703125 15.003125,7.425 C15.0015625,6.5796875 14.8125,5.759375 14.440625,4.9875 Z M8.0015625,12.6375 C7.5140625,12.6375 7.0265625,12.5859375 6.55625,12.484375 C6.4359375,12.459375 6.3109375,12.478125 6.2046875,12.540625 L4.6109375,13.4609375 L4.6109375,12.003125 C4.6109375,11.8359375 4.5265625,11.68125 4.3875,11.5875 C2.865625,10.590625 1.9921875,9.071875 1.9921875,7.421875 C1.9921875,4.546875 4.6875,2.209375 8.0015625,2.209375 C11.3140625,2.209375 14.0109375,4.546875 14.0109375,7.421875 C14.0109375,10.2984375 11.3140625,12.6375 8.0015625,12.6375 Z" id="形状" fill="#303133"></path>
                    </g>
                </g>
            </g>
        </g>
    </g>
</svg>