<?xml version="1.0" encoding="UTF-8"?>
<svg width="22px" height="22px" viewBox="0 0 22 22" version="1.1" xmlns="http://www.w3.org/2000/svg" xmlns:xlink="http://www.w3.org/1999/xlink">
    <title>icon/个人中心/企业管理备份</title>
    <g id="小程序" stroke="none" stroke-width="1" fill="none" fill-rule="evenodd">
        <g id="3-01我的" transform="translate(-24, -422)" fill="#1677FF" fill-rule="nonzero">
            <g id="编组备份" transform="translate(12, 301)">
                <g id="icon/个人中心/企业管理备份" transform="translate(13, 121)">
                    <path d="M12.8571429,5.86700289 L12.8571429,4.4003668 L13.5714286,4.4003668 C13.87496,4.40061052 14.1454916,4.20388543 14.2459872,3.90984158 C14.3464828,3.61579772 14.2549912,3.2886623 14.0178571,3.09414403 L10.4464286,0.160871825 C10.1854766,-0.0536239418 9.81452343,-0.0536239418 9.55357143,0.160871825 L5.98214285,3.09414403 C5.74500878,3.2886623 5.65351724,3.61579772 5.7540128,3.90984158 C5.85450836,4.20388543 6.12504003,4.40061052 6.42857144,4.4003668 L7.14285714,4.4003668 L7.14285714,5.86700289 L1.42857144,5.86700289 C0.639950189,5.86788697 0.000861134681,6.52400473 0,7.333639 L0,18.5333639 C0.000861134681,19.3429982 0.639950189,19.9991159 1.42857144,20 L18.5714286,20 C19.3600498,19.9991159 19.9991389,19.3429982 20,18.5333639 L20,7.333639 C19.9991389,6.52400473 19.3600498,5.86788697 18.5714286,5.86700289 L12.8571429,5.86700289 Z M10,1.6733403 L11.7140625,3.0810818 C11.5343075,3.21933236 11.4285186,3.43646268 11.4285714,3.66704874 L11.4285714,8.80027509 L8.57142858,8.80027509 L8.57142858,3.66704874 C8.57162208,3.4363014 8.46581835,3.21897069 8.28593751,3.08062347 L10,1.6733403 Z M7.14285714,7.333639 L7.14285714,9.53359315 C7.14285715,9.93859352 7.46265376,10.2669112 7.85714286,10.2669112 L12.1428571,10.2669112 C12.5373462,10.2669112 12.8571428,9.93859352 12.8571429,9.53359315 L12.8571429,7.333639 L17.5611607,7.333639 L10,14.096498 L2.43861607,7.333639 L7.14285714,7.333639 Z M1.42857144,18.5333639 L1.42857144,8.37059654 L8.98995535,15.1334556 C9.5478225,15.7060649 10.4521775,15.7060649 11.0100446,15.1334556 L18.5714286,8.37059654 L18.5714286,18.5333639 L1.42857144,18.5333639 Z" id="形状"></path>
                </g>
            </g>
        </g>
    </g>
</svg>