<?xml version="1.0" encoding="UTF-8"?>
<svg width="16px" height="16px" viewBox="0 0 16 16" version="1.1" xmlns="http://www.w3.org/2000/svg" xmlns:xlink="http://www.w3.org/1999/xlink">
    <title>全局设置</title>
    <g id="小程序" stroke="none" stroke-width="1" fill="none" fill-rule="evenodd">
        <g id="3-01我的" transform="translate(-285, -129)" fill-rule="nonzero">
            <g id="编组" transform="translate(277, 121)">
                <g id="全局设置" transform="translate(8, 8)">
                    <rect id="矩形" fill="#000000" opacity="0" x="0" y="0" width="16" height="16"></rect>
                    <path d="M10.6249967,10.7000026 L11.5249976,10.9250029 L12.2750042,9.65000747 L11.6750094,8.97500681 C11.7499978,8.59999473 11.7499978,8.30000615 11.7499978,7.99999561 C11.7499978,7.69999385 11.7499978,7.40000527 11.6750094,7.09999912 L12.2750042,6.42499846 L11.5249976,5.15000308 L10.6249967,5.3750033 C10.1749963,4.99999561 9.65000747,4.6249967 9.04999517,4.47500242 L8.75000659,3.49999561 L7.24999341,3.49999561 L6.95000483,4.39999648 C6.34999253,4.54999077 5.82500374,4.84999692 5.3750033,5.29999736 L4.47500242,5.07499714 L3.72499583,6.34999253 L4.32499055,7.02499319 C4.2500022,7.40000527 4.2500022,7.69999385 4.2500022,7.99999561 C4.2500022,8.30000615 4.2500022,8.59999473 4.32499055,8.90000088 L3.72499583,9.57500154 L4.47500242,10.8499969 L5.3750033,10.6249967 C5.82500374,11.0000088 6.34999253,11.3750033 6.95000483,11.5249976 L7.24999341,12.4999956 L8.75000659,12.4999956 L9.04999517,11.6000035 C9.65000747,11.4500092 10.1749963,11.1500031 10.6249967,10.7000026 L10.6249967,10.7000026 Z M11.2999974,12.1250099 C10.9250029,12.4249985 10.3999965,12.7250046 9.94999604,12.8749989 L9.5,14 L6.5,14 L6.05000396,12.8749989 C5.52499758,12.6499987 5.07499714,12.4249985 4.70000264,12.1250099 L3.5,12.3500101 L2,9.72499583 L2.74998901,8.82499495 L2.74998901,8 C2.74998901,7.69999385 2.74998901,7.47499363 2.82499495,7.24999341 L2.07498835,6.34999253 L3.57500154,3.72499583 L4.77499099,3.94999604 C5.15000308,3.64998989 5.67499187,3.35000132 6.12499231,3.19998945 L6.5,2 L9.5,2 L9.94999604,3.1250011 C10.4750024,3.35000132 10.9250029,3.57500154 11.2999974,3.87499011 L12.5,3.64998989 L14,6.27500417 L13.250011,7.17500505 C13.3249993,7.40000527 13.3249993,7.69999385 13.3249993,7.92499407 C13.3249993,8.14999429 13.3249993,8.45000044 13.250011,8.67500066 L14,9.57500154 L12.5,12.1999982 L11.2999974,12.1250099 Z M8,8.75000659 C8.45000044,8.75000659 8.75000659,8.45000044 8.75000659,8 C8.75000659,7.54999956 8.45000044,7.24999341 8,7.24999341 C7.54999956,7.24999341 7.24999341,7.54999956 7.24999341,8 C7.24999341,8.45000044 7.54999956,8.75000659 8,8.75000659 Z M8,10.2499978 C6.72500461,10.2499978 5.7499978,9.27499539 5.7499978,8 C5.7499978,6.72500461 6.72500461,5.7499978 8,5.7499978 C9.27499539,5.7499978 10.2499978,6.72500461 10.2499978,8 C10.2499978,9.27499539 9.27499539,10.2499978 8,10.2499978 Z" id="形状" fill="#303133"></path>
                </g>
            </g>
        </g>
    </g>
</svg>