<?xml version="1.0" encoding="UTF-8"?>
<svg width="16px" height="16px" viewBox="0 0 16 16" version="1.1" xmlns="http://www.w3.org/2000/svg" xmlns:xlink="http://www.w3.org/1999/xlink">
    <title>分享</title>
    <g id="小程序" stroke="none" stroke-width="1" fill="none" fill-rule="evenodd">
        <g id="2-03企业详情" transform="translate(-313, -164)" fill-rule="nonzero">
            <g id="分享" transform="translate(313, 162)">
                <g transform="translate(0, 2)">
                    <rect id="矩形" fill="#000000" opacity="0" x="0" y="0" width="16" height="16"></rect>
                    <path d="M14.24375,10.18125 L14.24375,13.45 C14.24375,14.0125 13.76875,14.484375 13.209375,14.484375 L2.278125,14.503125 C1.71875,14.503125 1.2625,14.046875 1.2625,13.484375 L1.28125,2.553125 C1.28125,1.99375 1.75625,1.51875 2.315625,1.51875 L8.3625,1.51875 L8.3625,0.315625 L2.315625,0.315625 C1.0375,0.315625 0.08125,1.609375 0.08125,2.765625 L0.08125,13.484375 C0.08125,14.696875 1.065625,15.684375 2.28125,15.684375 L13,15.684375 C14.28125,15.684375 15.446875,14.61875 15.446875,13.45 L15.446875,10.18125 L14.24375,10.18125 Z M11.409375,0.95 L15.91875,5.46875 L11.409375,9.984375 L11.409375,7.403125 C11.409375,7.403125 6.934375,6.90625 4.321875,10.63125 C4.321875,10.63125 5.14375,3.53125 11.409375,3.53125 L11.409375,0.95 Z" id="形状" fill="#FA8C16"></path>
                </g>
            </g>
        </g>
    </g>
</svg>