<?xml version="1.0" encoding="UTF-8"?>
<svg width="10px" height="17px" viewBox="0 0 10 17" version="1.1" xmlns="http://www.w3.org/2000/svg" xmlns:xlink="http://www.w3.org/1999/xlink">
    <title>icon/航线箭头</title>
    <g id="船期查询" stroke="none" stroke-width="1" fill="none" fill-rule="evenodd">
        <g id="02-船期查询" transform="translate(-26, -151)" fill="#BFC2CC" fill-rule="nonzero">
            <g id="编组" transform="translate(10, 100)">
                <g id="icon/航线箭头" transform="translate(16, 51)">
                    <path d="M9.79418575,12.4108392 L5.56298774,16.7237762 C5.48752251,16.8216783 5.38976074,16.8986014 5.27313266,16.9423077 C5.26455707,16.9440559 5.25941171,16.9458042 5.25426636,16.9458042 C5.18566161,16.9772727 5.11019638,16.9877622 5.03473116,16.9912587 C5.02444044,16.9912587 5.01243461,17 5.0021439,17 C4.98156247,17 4.96441129,16.986014 4.94382986,16.986014 C4.89923677,16.9825175 4.85464368,16.972028 4.8100506,16.9562937 C4.75688191,16.9423077 4.70885859,16.9195804 4.66083526,16.8951049 C4.63167824,16.8793706 4.60423634,16.8583916 4.57679444,16.8374126 C4.55278278,16.8181818 4.52191064,16.8094406 4.4996141,16.7832168 L0.208386931,12.4108392 C-0.0694623103,12.1293706 -0.0694623103,11.6713287 0.208386931,11.3933566 C0.482805934,11.1118881 0.932167053,11.1118881 1.21001629,11.3933566 L4.29723008,14.5384615 L4.29723008,7.52447552 C4.29723008,7.12237762 4.61795729,6.79195804 5.01243461,6.79195804 C5.40691193,6.79195804 5.72763914,7.12062937 5.72763914,7.52447552 L5.72763914,14.5157343 L8.7942715,11.3933566 C9.06697539,11.1118881 9.51805163,11.1118881 9.79418575,11.3933566 C10.0686048,11.6713287 10.0686048,12.1293706 9.79418575,12.4108392 Z M5.00728925,4.8548951 C4.61281194,4.8548951 4.29208473,4.52797203 4.29208473,4.12587413 C4.29208473,3.72552448 4.61109682,3.3986014 5.00728925,3.3986014 C5.40348169,3.3986014 5.72250063,3.72552448 5.72250063,4.12587413 C5.7242089,4.52972028 5.40348169,4.8548951 5.00728925,4.8548951 Z M5.00728925,1.45629371 C4.61281194,1.45629371 4.29208473,1.13111888 4.29208473,0.727272727 C4.29208473,0.326923077 4.61109682,0 5.00728925,0 C5.40348169,0 5.72250063,0.326923077 5.72250063,0.727272727 C5.7242089,1.13111888 5.40348169,1.45629371 5.00728925,1.45629371 Z" id="形状"></path>
                </g>
            </g>
        </g>
    </g>
</svg>