<?xml version="1.0" encoding="UTF-8"?>
<svg width="52px" height="52px" viewBox="0 0 52 52" version="1.1" xmlns="http://www.w3.org/2000/svg" xmlns:xlink="http://www.w3.org/1999/xlink">
    <title>咨询热线</title>
    <defs>
        <linearGradient x1="131.883955%" y1="-77.695999%" x2="34.5703837%" y2="89.2776142%" id="linearGradient-1">
            <stop stop-color="#7AEEDC" offset="0%"></stop>
            <stop stop-color="#45D9B6" offset="100%"></stop>
        </linearGradient>
        <path d="M9.8215076,23.559637 C9.8215076,23.559637 11.6045904,24.8254004 12.878221,24.8254004 L14.1551598,24.8254004 C14.9743459,24.7115197 15.7611892,24.4440672 16.4759629,24.0414677 C17.0304583,24.9176256 17.7455371,25.6851558 18.5800597,26.305477 L18.2973022,26.4936498 L17.9760516,26.7224016 C17.9760516,26.7224016 16.6958047,27.9881649 13.6423994,27.9881649 C12.0941939,28.0802205 10.5592209,27.6330937 9.30874723,26.7224016 C9.30874723,26.7224016 6.62916077,24.8254004 4.97840319,24.9437575 C3.81724906,24.7892357 2.64617053,25.1607455 1.79267262,25.9563682 C1.64049858,26.0582868 1.45855135,26.1010268 1.27660412,26.0845883 C0.578588389,26.0845883 0.00958978322,25.5223922 0.00297352036,24.8254004 C-0.0301077939,24.319095 0.214693932,23.8358036 0.644751018,23.559637 C0.644751018,23.559637 4.21422483,19.4861804 9.8215076,23.559637 Z M24.407922,12.3618609 C26.4201313,12.3618609 28.3500416,13.1469738 29.7779284,14.5472267 C31.2017002,15.9515266 32,17.8455104 32,19.8285275 C32,23.9523938 28.6010534,27.2951942 24.407922,27.2951942 C20.2147906,27.2951942 16.815844,23.9523938 16.815844,19.8285275 C16.815844,15.7046612 20.2147906,12.3618609 24.407922,12.3618609 Z M15.7033653,7.46964768 L22.9195572,11.2368804 C18.5801855,11.636146 15.184156,15.22791 15.184156,19.6 C15.184156,20.5995241 15.3616484,21.5582647 15.6873273,22.4474 C13.4244809,23.5599391 13.0082088,23.1231309 10.711395,22.0341456 C8.75628928,21.0412611 6.69863153,20.2785154 4.57150302,19.7524838 L2.80826897,17.0993123 C0.899477138,14.6927181 0.515733892,13.5255856 1.5379465,12.914074 L12.0147987,7.46964768 C13.1594122,6.83840985 14.5554437,6.83840985 15.7033653,7.46964768 Z M22.5882324,15.6753957 C22.3443504,15.8267754 22.2093443,16.095895 22.2441846,16.3776296 L22.2441846,21.225987 C22.2441846,21.6296664 22.5795223,21.9492459 22.9888956,21.9576559 L28.0407366,21.9576559 L28.0921275,21.9550934 C28.4306256,21.9104884 28.6942716,21.6505234 28.7394097,21.3285056 L28.7462523,21.230192 C28.7462523,21.0409673 28.6635066,20.8559476 28.5241455,20.7213878 C28.3847844,20.582623 28.1931628,20.5069331 27.9928312,20.5111381 L23.7379617,20.5111381 L23.7379617,16.3776296 C23.772802,16.1001 23.6421509,15.8267754 23.3939139,15.6753957 C23.1500319,15.5240159 22.8364694,15.5240159 22.5882324,15.6753957 Z M14.5289786,0 C14.8697162,0 15.193913,0.134795579 15.4320985,0.371509766 C15.6735921,0.608223953 15.8059174,0.930418263 15.8059174,1.26905106 L15.8059174,3.03783207 L18.8593227,3.03783207 C19.5606465,3.03783207 20.1329533,3.60331596 20.1329533,4.30359543 L20.1329533,8.25211958 L15.418866,5.69757898 C15.0483553,5.57922188 14.6679201,5.49374176 14.2808688,5.4444263 L13.381057,5.4444263 C12.9046861,5.4542894 12.4349314,5.54305722 11.9883337,5.69757898 L7.65468152,7.96937763 L7.65468152,4.16879985 C7.65798965,3.47509578 8.22368012,2.91618728 8.92169585,2.91618728 L11.9883337,2.91618728 L11.9883337,1.26576336 C11.9883337,0.572059286 12.5540242,0.00657539409 13.255348,0 L14.5289786,0 Z" id="path-2"></path>
        <filter x="-34.4%" y="-25.0%" width="168.7%" height="178.6%" filterUnits="objectBoundingBox" id="filter-3">
            <feOffset dx="0" dy="4" in="SourceAlpha" result="shadowOffsetOuter1"></feOffset>
            <feGaussianBlur stdDeviation="3" in="shadowOffsetOuter1" result="shadowBlurOuter1"></feGaussianBlur>
            <feColorMatrix values="0 0 0 0 0.230369415   0 0 0 0 0.695935236   0 0 0 0 0.588253345  0 0 0 0.246558129 0" type="matrix" in="shadowBlurOuter1"></feColorMatrix>
        </filter>
    </defs>
    <g id="优化1" stroke="none" stroke-width="1" fill="none" fill-rule="evenodd">
        <g id="1-01首页备份" transform="translate(-162, -294)">
            <g id="咨询热线" transform="translate(162, 294)">
                <rect id="矩形备份-9" fill="url(#linearGradient-1)" x="0" y="0" width="52" height="52" rx="20"></rect>
                <g id="编组" transform="translate(11, 11)" fill-rule="nonzero">
                    <g id="形状结合">
                        <use fill="black" fill-opacity="1" filter="url(#filter-3)" xlink:href="#path-2"></use>
                        <use fill="#FFFFFF" xlink:href="#path-2"></use>
                    </g>
                </g>
            </g>
        </g>
    </g>
</svg>