<?xml version="1.0" encoding="UTF-8"?>
<svg width="52px" height="52px" viewBox="0 0 52 52" version="1.1" xmlns="http://www.w3.org/2000/svg" xmlns:xlink="http://www.w3.org/1999/xlink">
    <title>协会概况</title>
    <defs>
        <linearGradient x1="120.860131%" y1="-23.1596276%" x2="19.6516968%" y2="80.8000715%" id="linearGradient-1">
            <stop stop-color="#71B9FF" offset="0%"></stop>
            <stop stop-color="#458AFE" offset="100%"></stop>
        </linearGradient>
        <path d="M33.188017,16.4686332 C34.3295787,16.4729845 35.2542185,17.388549 35.2597142,18.5199968 L35.2597142,35.9486364 C35.2597142,37.0776815 34.3271497,38 33.1900226,38 L17.0696917,38 C15.930559,38 15,37.0756937 15,35.9486364 L15,18.5199968 C15,17.3909517 15.9325646,16.4686332 17.0696917,16.4686332 Z M19.5605415,31.3449948 C18.8638514,31.3449948 18.2990724,31.9047724 18.2990724,32.595293 C18.2990724,33.2858136 18.8638514,33.8455912 19.5605415,33.8455912 C20.2572316,33.8455912 20.8220105,33.2858136 20.8220105,32.595293 C20.8220105,31.9047724 20.2572316,31.3449948 19.5605415,31.3449948 Z M31.9606418,31.5696112 L23.6417649,31.5696112 C23.0702353,31.5696112 22.606919,32.0288246 22.606919,32.595293 C22.606919,33.1617614 23.0702353,33.6209748 23.6417649,33.6209748 L31.9606418,33.6209748 C32.5321713,33.6209748 32.9954876,33.1617614 32.9954876,32.595293 C32.9954876,32.0288246 32.5321713,31.5696112 31.9606418,31.5696112 Z M33.8277764,13 C36.6824849,13.0043782 38.9955826,15.2969925 39,18.1264212 L39,27.482786 C39,28.0473086 38.5387315,28.5064801 37.9671597,28.5064801 C37.3956301,28.5064801 36.9323139,28.0472667 36.9323139,27.4807983 L36.9323139,18.1264212 C36.9323139,16.4308659 35.5404863,15.0513636 33.8297819,15.0513636 L27.4522437,15.0513636 C27.0825289,15.0517187 26.7407072,14.8565529 26.5555395,14.5393834 C26.3703719,14.2222139 26.3699896,13.8312262 26.5545368,13.5137016 C26.7390839,13.196177 27.0805234,13.0003551 27.4502382,13 L33.8277764,13 Z M19.5605415,25.9840184 C19.109862,25.9840184 18.693417,26.2223239 18.4680772,26.6091675 C18.2427375,26.9960111 18.2427375,27.4726221 18.4680772,27.8594657 C18.693417,28.2463093 19.109862,28.4846148 19.5605415,28.4846148 C20.2572316,28.4846148 20.8220105,27.9248372 20.8220105,27.2343166 C20.8220105,26.543796 20.2572316,25.9840184 19.5605415,25.9840184 Z M31.9606418,26.2066471 L23.6417649,26.2066471 C23.0702353,26.2066471 22.606919,26.6658604 22.606919,27.2323289 C22.606919,27.7987973 23.0702353,28.2580107 23.6417649,28.2580107 L31.9606418,28.2580107 C32.5321713,28.2580107 32.9954876,27.7987973 32.9954876,27.2323289 C32.9954876,26.6658604 32.5321713,26.2066471 31.9606418,26.2066471 Z M19.5605415,20.6210543 C18.8638514,20.6210543 18.2990724,21.1808319 18.2990724,21.8713525 C18.2990724,22.5618731 18.8638514,23.1216506 19.5605415,23.1216506 C20.2572316,23.1216506 20.8220105,22.5618731 20.8220105,21.8713525 C20.8220105,21.1808319 20.2572316,20.6210543 19.5605415,20.6210543 Z M31.9606418,20.8456707 L23.6417649,20.8456707 C23.0702353,20.8456707 22.606919,21.3048841 22.606919,21.8713525 C22.606919,22.4378209 23.0702353,22.8970343 23.6417649,22.8970343 L31.9606418,22.8970343 C32.5321713,22.8970343 32.9954876,22.4378209 32.9954876,21.8713525 C32.9954876,21.3048841 32.5321713,20.8456707 31.9606418,20.8456707 Z" id="path-2"></path>
        <filter x="-45.8%" y="-28.0%" width="191.7%" height="188.0%" filterUnits="objectBoundingBox" id="filter-3">
            <feOffset dx="0" dy="4" in="SourceAlpha" result="shadowOffsetOuter1"></feOffset>
            <feGaussianBlur stdDeviation="3" in="shadowOffsetOuter1" result="shadowBlurOuter1"></feGaussianBlur>
            <feColorMatrix values="0 0 0 0 0.301960784   0 0 0 0 0.576470588   0 0 0 0 0.996078431  0 0 0 0.396634615 0" type="matrix" in="shadowBlurOuter1"></feColorMatrix>
        </filter>
    </defs>
    <g id="小程序" stroke="none" stroke-width="1" fill="none" fill-rule="evenodd">
        <g id="1-01首页" transform="translate(-26, -294)">
            <g id="功能区" transform="translate(24, 294)">
                <g id="协会概况" transform="translate(2, 0)">
                    <rect id="矩形" fill="url(#linearGradient-1)" x="0" y="0" width="52" height="52" rx="20"></rect>
                    <g id="形状结合" fill-rule="nonzero">
                        <use fill="black" fill-opacity="1" filter="url(#filter-3)" xlink:href="#path-2"></use>
                        <use fill="#FFFFFF" xlink:href="#path-2"></use>
                    </g>
                </g>
            </g>
        </g>
    </g>
</svg>