<?xml version="1.0" encoding="UTF-8"?>
<svg width="20px" height="17px" viewBox="0 0 20 17" version="1.1" xmlns="http://www.w3.org/2000/svg" xmlns:xlink="http://www.w3.org/1999/xlink">
    <title>形状结合备份</title>
    <g id="小程序" stroke="none" stroke-width="1" fill="none" fill-rule="evenodd">
        <g id="4-03企业基本信息" transform="translate(-102, -130)" fill="#BFC2CC" fill-rule="nonzero">
            <g id="编组" transform="translate(88, 114)">
                <path d="M26.375,16 C26.75,16 27.25,16.2428571 27.375,16.6071429 L28.5,18.4285714 L32.125,18.4285714 C33.125,18.4285714 34,19.2785714 34,20.25 L34,31.1785714 C34,32.15 33.125,33 32.125,33 L15.875,33 C14.875,33 14,32.15 14,31.1785714 L14,20.25 C14,19.2785714 14.875,18.4285714 15.875,18.4285714 L19.5,18.4285714 L20.625,16.6071429 C20.75,16.2428571 21.25,16 21.625,16 Z M24,19.6428571 C20.875,19.6428571 18.375,22.0714286 18.375,25.1071429 C18.375,28.1428571 20.875,30.5714286 24,30.5714286 C27.125,30.5714286 29.625,28.1428571 29.625,25.1071429 C29.625,22.0714286 27.125,19.6428571 24,19.6428571 Z M24,21.4642857 C26.0710678,21.4642857 27.75,23.0952484 27.75,25.1071429 C27.75,27.1190373 26.0710678,28.75 24,28.75 C21.9289322,28.75 20.25,27.1190373 20.25,25.1071429 C20.25,23.0952484 21.9289322,21.4642857 24,21.4642857 Z" id="形状结合备份"></path>
            </g>
        </g>
    </g>
</svg>