<?xml version="1.0" encoding="UTF-8"?>
<svg width="22px" height="22px" viewBox="0 0 22 22" version="1.1" xmlns="http://www.w3.org/2000/svg" xmlns:xlink="http://www.w3.org/1999/xlink">
    <title>icon/邀请列表</title>
    <g id="小程序" stroke="none" stroke-width="1" fill="none" fill-rule="evenodd">
        <g id="3-01我的" transform="translate(-24, -201)" fill="#1677FF" fill-rule="nonzero">
            <g id="编组" transform="translate(12, 186)">
                <g id="icon/邀请列表" transform="translate(14, 17)">
                    <path d="M9.56859185,5.29001846 L3.31132179,5.29001846 C2.91261207,5.29001846 2.58962629,4.96719282 2.58962629,4.568953 C2.58962629,4.17071318 2.91283284,3.84810805 3.31132179,3.84788709 L9.56859185,3.84788709 C9.96730158,3.84744652 10.2907289,4.17005165 10.2911709,4.56807096 C10.291612,4.96631079 9.96884697,5.28935693 9.57013724,5.28979795 L9.56859185,5.28979795 L9.56859185,5.29001846 Z M7.00104252,9.13680345 L3.31132179,9.13680345 C2.92497516,9.11938322 2.62053402,8.80140879 2.62053402,8.41507647 C2.62053402,8.02874415 2.92475439,7.71076972 3.31132179,7.69334948 L7.00258791,7.69334948 C7.26849762,7.68132218 7.51952523,7.8161752 7.65606564,8.04440031 C7.7925023,8.27265092 7.7925023,8.55728151 7.65606564,8.78553212 C7.51955408,9.01381282 7.26853446,9.14874626 7.00258791,9.13680345 L7.00104252,9.13680345 L7.00104252,9.13680345 Z M7.00104252,12.9833679 L3.31132179,12.9833679 C2.92497516,12.9659477 2.62053402,12.6479733 2.62053402,12.261641 C2.62053402,11.8753086 2.92475439,11.5573342 3.31132179,11.539914 L7.00258791,11.539914 C7.26855689,11.527873 7.51962377,11.6628318 7.65606564,11.8911853 C7.7925023,12.1194359 7.7925023,12.4040665 7.65606564,12.6323171 C7.51955408,12.8605978 7.26853446,12.9955313 7.00258791,12.9835884 L7.00104252,12.9835884 L7.00104252,12.9833679 Z M14.120859,10.7926079 C13.6773966,10.7707833 13.2579325,10.994635 13.0295954,11.374973 C12.8013327,11.7553453 12.8013535,12.2303667 13.0296495,12.6107191 C13.2579454,12.9910715 13.6774069,13.2149284 14.120859,13.1930723 C14.7613114,13.1615395 15.2644451,12.6334197 15.2644451,11.9928401 C15.2644451,11.3522605 14.7615321,10.8241407 14.120859,10.7926079 L14.120859,10.7926079 Z M17.2502668,17.9421814 C16.9047625,17.9406378 16.608269,17.695211 16.543142,17.3560676 C16.3272295,16.1904554 15.3092613,15.3445817 14.1224044,15.3445817 C12.9355476,15.3445817 11.9175794,16.1904554 11.7016668,17.3560676 C11.6715957,17.6262036 11.4925408,17.8567419 11.2380508,17.9529864 C10.9836347,18.0493356 10.6966206,17.9951687 10.4949407,17.8127424 C10.2931774,17.6304301 10.2107933,17.350518 10.2816774,17.0881488 C10.5276146,15.7831747 11.4241595,14.6942997 12.6582611,14.2012409 C11.6884206,13.5575742 11.2548293,12.3553574 11.5915028,11.2417854 C11.9281763,10.1282133 12.9551961,9.36635365 14.1197552,9.36635365 C15.2843143,9.36635365 16.3113341,10.1282133 16.6477868,11.2417854 C16.9844603,12.3553574 16.550869,13.5575742 15.5810285,14.2012409 C16.8146885,14.6945202 17.7101296,15.7833952 17.9547422,17.0881488 C17.9949223,17.2980737 17.9392884,17.5152754 17.8032944,17.6802163 C17.66693,17.8450842 17.4643684,17.9410361 17.2502668,17.9421814 L17.2502668,17.9421814 Z M7.00104252,17.9510018 L1.44515718,17.9510018 C0.647516956,17.9501197 0.000883078017,17.3044685 0,16.5075478 L0,1.44345397 C0.000883078017,0.646533311 0.647296187,0.000882037259 1.44515718,0 L16.5563882,0 C17.3538077,0.000882037259 18,0.64675382 18,1.44345397 L18,8.25454569 C18,8.51217292 17.8624463,8.750244 17.6390732,8.87906092 C17.4157001,9.00787785 17.1404869,9.00786532 16.9171256,8.87902807 C16.6937506,8.75022497 16.5561507,8.51216764 16.5561674,8.25454569 L16.5561674,1.44345397 L1.44515718,1.44345397 L1.44515718,16.5075478 L7.00104252,16.5075478 C7.26697616,16.4955952 7.51799344,16.6304969 7.65453281,16.8587465 C7.79107218,17.0869961 7.79106736,17.371706 7.65452025,17.599951 C7.51783736,17.8280271 7.26690636,17.9628282 7.00104252,17.9510018 Z" id="形状"></path>
                </g>
            </g>
        </g>
    </g>
</svg>