<?xml version="1.0" encoding="UTF-8"?>
<svg width="22px" height="22px" viewBox="0 0 22 22" version="1.1" xmlns="http://www.w3.org/2000/svg" xmlns:xlink="http://www.w3.org/1999/xlink">
    <title>icon/个人中心/企业管理</title>
    <g id="小程序" stroke="none" stroke-width="1" fill="none" fill-rule="evenodd">
        <g id="3-01我的" transform="translate(-24, -254)" fill="#1677FF" fill-rule="nonzero">
            <g id="编组" transform="translate(12, 186)">
                <g id="icon/个人中心/企业管理" transform="translate(13, 70)">
                    <path d="M19.8559762,13.4618843 L17.5416125,17.4519158 C17.3448287,17.791177 16.9822947,18 16.5900933,18 L11.9524839,18 C11.5602811,18 11.1977461,17.7911756 11.0009628,17.4519126 L8.68661579,13.4618789 C8.48864394,13.120567 8.48864394,12.6993656 8.68661579,12.3580536 L11.0009628,8.36801994 C11.1977461,8.02875701 11.5602811,7.81993257 11.9524839,7.81993257 L16.5900729,7.81993257 C16.982273,7.81993257 17.344806,8.02875422 17.5415903,8.36801354 L19.8559743,12.3580494 C20.0539505,12.6993635 20.0539512,13.1205695 19.8559762,13.4618843 Z M13.2675533,1.40384863 L13.2677363,1.42744043 L13.2677363,3.83139513 L15.2656925,3.83141786 C16.0508725,3.83141786 16.6888713,4.45780522 16.7015384,5.23526649 L16.7017442,5.25885829 L16.7017442,6.35734931 C16.7017442,6.73666062 16.3942517,7.04415319 16.0149404,7.04415319 C15.635629,7.04415319 15.3281365,6.73666062 15.3281365,6.35734931 L15.3281365,5.25885829 L15.3281365,5.25885829 C15.3281365,5.2270389 15.3040369,5.20081064 15.2729864,5.19721959 L15.2656925,5.19681049 L11.8941514,5.19681049 L11.8941514,1.42744043 C11.8941514,1.39562105 11.8700518,1.36939278 11.8390013,1.36580173 L3.02817919,1.36539263 C2.99650783,1.36538462 2.9698462,1.38894644 2.96614677,1.42021289 L2.9657352,1.42744043 L2.9657352,16.5708095 L7.74621364,16.5708095 C8.12325641,16.5708095 8.42890996,16.8764631 8.42890996,17.2535058 C8.42890996,17.6305486 8.12325641,17.9362021 7.74621364,17.9362021 L0.682696314,17.9362021 C0.305653551,17.9362021 1.82253126e-15,17.6305486 1.77635684e-15,17.2535058 C1.73018242e-15,16.8764631 0.305653551,16.5708095 0.682696314,16.5708095 L1.59212744,16.5708095 L1.59212744,16.5708095 L1.59212744,1.42744043 C1.59212744,0.646956324 2.22228357,0.0127959392 3.00442258,0.000181825069 L3.02817919,0 L11.8317074,0 C12.6168874,0 13.2548633,0.626387363 13.2675533,1.40384863 Z M16.4317328,9.1853252 L12.1108647,9.1853252 L9.95040777,12.9099663 L12.1108418,16.6346301 L16.43171,16.6346301 L18.592144,12.9099663 L16.43171,9.1853252 L16.4317328,9.1853252 Z M14.2947124,10.5506724 C15.6032696,10.5506724 16.6640858,11.606576 16.6640858,12.9090799 C16.6640858,14.2115838 15.6032925,15.2674647 14.2947124,15.2674647 C12.9861552,15.2674647 11.9253619,14.2115838 11.9253619,12.9090799 C11.9253619,11.606576 12.9861552,10.5506724 14.2947124,10.5506724 Z M14.2947124,11.916065 C13.7437374,11.916065 13.2970948,12.36065 13.2970948,12.9090572 C13.2970948,13.457487 13.7437374,13.902072 14.2947124,13.902072 C14.8456875,13.902072 15.2923529,13.4575098 15.2923529,12.9090799 C15.2923529,12.36065 14.8456875,11.916065 14.2947124,11.916065 L14.2947124,11.916065 Z M8.05841074,8.81294746 L5.30300294,8.81294746 C4.92596018,8.81294746 4.62030663,8.50729391 4.62030663,8.13025115 C4.62030663,7.75320838 4.92596018,7.44755483 5.30300294,7.44755483 L8.05841074,7.44755483 C8.4354535,7.44755483 8.74110705,7.75320838 8.74110705,8.13025115 C8.74110705,8.50729391 8.4354535,8.81294746 8.05841074,8.81294746 Z M10.2395799,4.94772409 C10.2395799,5.32476058 9.93393147,5.63040904 9.55689498,5.63040904 L5.30299158,5.63040904 C4.92595509,5.63040904 4.62030663,5.32476058 4.62030663,4.94772409 C4.62030663,4.5706876 4.92595509,4.26503914 5.30299158,4.26503914 L9.55689498,4.26503914 C9.93393147,4.26503914 10.2395799,4.5706876 10.2395799,4.94772409 Z" id="形状"></path>
                </g>
            </g>
        </g>
    </g>
</svg>